<svg xmlns="http://www.w3.org/2000/svg" data-name="Layer 1" viewBox="0 0 512 640" x="0px" y="0px"><title>Man Audience</title><path d="M256,416.815c23.612,0,42.821-18.63,42.821-41.53s-19.209-41.53-42.821-41.53-42.821,18.631-42.821,41.53S232.388,416.815,256,416.815Zm0-67.06c14.789,0,26.821,11.453,26.821,25.53s-12.032,25.53-26.821,25.53-26.821-11.453-26.821-25.53S241.211,349.755,256,349.755Z"/><path d="M195.911,503H316.09a7.924,7.924,0,0,0,7.91-8V484.744c0-36.316-30.455-65.861-68-65.861s-68,29.545-68,65.861V495A7.924,7.924,0,0,0,195.911,503ZM204,484.744c0-27.494,23.278-49.861,52-49.861s52,22.367,52,49.861V487H204Z"/><path d="M381.089,375.285c0,22.9,19.21,41.53,42.821,41.53s42.822-18.63,42.822-41.53-19.21-41.53-42.822-41.53S381.089,352.386,381.089,375.285Zm69.643,0c0,14.077-12.032,25.53-26.822,25.53s-26.821-11.453-26.821-25.53,12.032-25.53,26.821-25.53S450.732,361.208,450.732,375.285Z"/><path d="M356,484.744V495a7.85,7.85,0,0,0,7.821,8H484a8,8,0,0,0,8-8V484.744c0-36.316-30.455-65.861-68-65.861S356,448.428,356,484.744Zm120,0V487H372v-2.256c0-27.494,23.278-49.861,52-49.861S476,457.25,476,484.744Z"/><path d="M88.09,416.815c23.611,0,42.821-18.63,42.821-41.53s-19.21-41.53-42.821-41.53-42.822,18.631-42.822,41.53S64.478,416.815,88.09,416.815Zm0-67.06c14.789,0,26.821,11.453,26.821,25.53s-12.032,25.53-26.821,25.53-26.822-11.453-26.822-25.53S73.3,349.755,88.09,349.755Z"/><path d="M28,503H148.179A7.85,7.85,0,0,0,156,495V484.744c0-36.316-30.455-65.861-68-65.861s-68,29.545-68,65.861V495A8,8,0,0,0,28,503Zm8-18.256c0-27.494,23.278-49.861,52-49.861s52,22.367,52,49.861V487H36Z"/><path d="M382.821,355.285c0-22.9-19.209-41.53-42.821-41.53s-42.821,18.631-42.821,41.53,19.209,41.53,42.821,41.53S382.821,378.185,382.821,355.285Zm-69.642,0c0-14.077,12.032-25.53,26.821-25.53s26.821,11.453,26.821,25.53-12.032,25.53-26.821,25.53S313.179,369.362,313.179,355.285Z"/><path d="M172,313.755c-23.612,0-42.821,18.631-42.821,41.53s19.209,41.53,42.821,41.53,42.821-18.63,42.821-41.53S195.612,313.755,172,313.755Zm0,67.06c-14.789,0-26.821-11.453-26.821-25.53s12.032-25.53,26.821-25.53,26.821,11.453,26.821,25.53S186.789,380.815,172,380.815Z"/><path d="M80.5,301h351c4.418,0,7.5-3.582,7.5-8V248c0-4.418-3.082-8-7.5-8H393V201.352a22,22,0,1,0-16-.785V240H359V214.8c0-25.239-20.962-45.8-46.2-45.8H294v-7.782c2-1.7,3.887-3.529,5.827-5.521A64.249,64.249,0,0,0,318,110.471V63h5.71a8.093,8.093,0,0,0,8-8.109A45.927,45.927,0,0,0,285.929,9H247.036A25.978,25.978,0,0,0,232,13.778a63.416,63.416,0,0,0-40,58.94v37.753A64.149,64.149,0,0,0,210.067,155.7,58.018,58.018,0,0,0,218,162.9V169H199.2c-25.24,0-46.2,20.561-46.2,45.8V240H80.5c-4.418,0-8.5,3.582-8.5,8v45C72,297.418,76.082,301,80.5,301ZM386,174.5a6,6,0,1,1-6,6A6.007,6.007,0,0,1,386,174.5Zm-43,40.3V240H263V200.347L287.823,185H312.8C329.215,185,343,198.383,343,214.8ZM247.036,25h38.893a29.512,29.512,0,0,1,28.69,22H247.036a11,11,0,0,1,0-22ZM220.5,40.239a26.936,26.936,0,0,0,11.5,17.939,43.7,43.7,0,0,1-24.353,11.043A47.54,47.54,0,0,1,220.5,40.239ZM208,110.471V85.265C218,84.488,235.144,80,249.776,63H302v47.471a48.558,48.558,0,0,1-13.868,34.064,46.274,46.274,0,0,1-33.342,14.319,45.772,45.772,0,0,1-33.117-14.319A48.37,48.37,0,0,1,208,110.471Zm46.894,64.383A67.04,67.04,0,0,0,278,170.513v2.071l-22.609,13.832L234,172.7v-1.353A66.046,66.046,0,0,0,254.894,174.854ZM169,214.8c0-16.417,13.785-29.8,30.2-29.8h24.733L247,200.233V240H169ZM88,256h71.7a7.855,7.855,0,0,0,3.461,0H348.841a7.855,7.855,0,0,0,3.461,0H423v29H88Z"/><path d="M248.663,99.7a8,8,0,1,0-16,0,1.438,1.438,0,0,1-2.876,0,8,8,0,0,0-16,0,17.438,17.438,0,0,0,34.876,0Z"/><path d="M278.416,117.136A17.458,17.458,0,0,0,295.854,99.7a8,8,0,1,0-16,0,1.438,1.438,0,1,1-2.876,0,8,8,0,1,0-16,0A17.458,17.458,0,0,0,278.416,117.136Z"/><text x="0" y="527" fill="#000000" font-size="5px" font-weight="bold" font-family="'Helvetica Neue', Helvetica, Arial-Unicode, Arial, Sans-serif">Created by Shastry</text><text x="0" y="532" fill="#000000" font-size="5px" font-weight="bold" font-family="'Helvetica Neue', Helvetica, Arial-Unicode, Arial, Sans-serif">from the Noun Project</text></svg>